<?xml version="1.0" encoding="UTF-8"?>
<svg id="_圖層_1" data-name="圖層_1" xmlns="http://www.w3.org/2000/svg" version="1.1" viewBox="0 0 362.58 289.91">
  <!-- Generator: Adobe Illustrator 29.0.1, SVG Export Plug-In . SVG Version: 2.1.0 Build 192)  -->
  <defs>
    <style>
      .st0 {
        fill: #fff;
      }
    </style>
  </defs>
  <path class="st0" d="M8.98,2.23v201.5l.75.75h27.25V30.23c0-1.06,4.81-.41,5.71-.21,5.8,1.31,10.24,6.78,14,11l139.04,195.96c6.25,7.45,21.06,6.07,23.14-4.37.15-.76.61-4.33.61-4.89V30.23l1.72-.78c24.18,2,54.42-5.29,76.11,7.44,33.85,19.87,35.81,68.16,1.82,88.99-12.6,7.72-25.02,8.32-39.46,8.55-1.3.02-6.75-1.63-6.71.79l65.6,103.93,2.16,2.34h30.25l-52-85.24c9.72-4.3,19.03-8.91,27.01-16,41.23-36.64,30.56-102.96-17.16-128.35-33.09-17.61-77.81-6.92-114.12-9.93l-2.73.52v181.5c-1.16.28-.82-.22-1.14-.63-3.56-4.53-7.35-10.38-10.77-15.2-28.58-40.32-56.32-81.25-84.93-121.54C79.25,24.24,67.64,2.66,36.75.96c-6.85-.38-18.41-.67-25.05,0-.9.09-2.43.24-2.72,1.28ZM133.98,239.98l-1.38-.87c-2.83-11.26-5.67-22.55-8.76-33.74-3.58-12.96-7.41-30.09-12.27-42.23-3.1-7.75-8.03-10.11-16.34-9.16-8.1.92-9.89,7.81-12.26,14.24-6.34,17.26-11.21,35.09-17.69,52.31-.59.53-1.31.41-2.02.48-15.91,1.59-35.4-1.94-51.04-.04-12.78,1.55-12.44,22.25.99,23.53,19.25-1.27,40.53,1.63,59.54,0,3.84-.33,7.01-2.1,9.49-5.01,3.84-4.52,7.58-19.09,9.6-25.4,1.71-5.36,3.39-10.77,4.77-16.23l1.38-.87,21.26,80.99c2.58,9.67,13.73,16.15,22.19,8.71,3.85-3.39,5.91-12.56,7.4-17.6,2.38-8.01,4.98-16.91,7.03-24.97.22-.87.12-1.76.12-2.63.91-.2.98.28,1.41.83,3.64,4.71,6.52,10.13,10.11,14.89,11.11,14.76,25.47,19.92,43.71,20.79,45.54,2.19,92.81-1.68,138.52-.02,14.94-1.05,18.02-20.2,3-24.01l-143.02.02c-26.39-.65-31.48-29.38-45.03-45.47-5.7-6.78-16.87-6.14-21.82,1.09-3.51,5.13-7.2,21.08-8.77,27.73-.2.86-.12,1.76-.12,2.63Z"/>
  <path d="M8.98,2.23c.29-1.04,1.82-1.19,2.72-1.28,6.64-.66,18.21-.37,25.05,0,30.89,1.7,42.49,23.28,58.38,45.65,28.61,40.29,56.36,81.22,84.93,121.54,3.42,4.83,7.21,10.67,10.77,15.2.32.41-.02.91,1.14.63V2.48l2.73-.52c36.31,3.01,81.03-7.68,114.12,9.93,47.72,25.39,58.39,91.71,17.16,128.35-7.98,7.09-17.29,11.7-27.01,16l52,85.24h-30.25l-2.16-2.34-65.6-103.93c-.04-2.41,5.41-.77,6.71-.79,14.43-.23,26.86-.83,39.46-8.55,33.99-20.83,32.04-69.12-1.82-88.99-21.69-12.73-51.93-5.44-76.11-7.44l-1.72.78v197.5c0,.56-.46,4.13-.61,4.89-2.08,10.44-16.9,11.82-23.14,4.37L56.69,41.03c-3.76-4.23-8.19-9.7-14-11-.9-.2-5.71-.85-5.71.21v174.25H9.73l-.75-.75V2.23Z"/>
  <path d="M133.98,239.98c0-.87-.08-1.77.12-2.63,1.57-6.66,5.26-22.61,8.77-27.73,4.95-7.23,16.12-7.87,21.82-1.09,13.55,16.1,18.63,44.82,45.03,45.47l143.02-.02c15.02,3.8,11.94,22.96-3,24.01-45.72-1.67-92.99,2.2-138.52.02-18.24-.88-32.6-6.03-43.71-20.79-3.59-4.77-6.46-10.18-10.11-14.89-.43-.56-.5-1.04-1.41-.83,0,.87.1,1.77-.12,2.63-2.04,8.06-4.65,16.96-7.03,24.97-1.5,5.04-3.55,14.21-7.4,17.6-8.46,7.44-19.61.96-22.19-8.71l-21.26-80.99-1.38.87c-1.38,5.47-3.06,10.87-4.77,16.23-2.01,6.31-5.76,20.88-9.6,25.4-2.48,2.92-5.64,4.68-9.49,5.01-19.01,1.63-40.29-1.27-59.54,0-13.43-1.28-13.78-21.98-.99-23.53,15.64-1.9,35.13,1.63,51.04.04.71-.07,1.43.05,2.02-.48,6.48-17.22,11.35-35.05,17.69-52.31,2.36-6.43,4.16-13.32,12.26-14.24,8.31-.95,13.24,1.41,16.34,9.16,4.85,12.15,8.68,29.27,12.27,42.23,3.09,11.19,5.93,22.48,8.76,33.74l1.38.87Z"/>
</svg>